<mxfile host="app.diagrams.net" modified="2023-12-02T12:40:18.749Z" agent="Mozilla/5.0 (Macintosh; Intel Mac OS X 10_15_7) AppleWebKit/537.36 (KHTML, like Gecko) Chrome/119.0.0.0 Safari/537.36" etag="ggWZzpKB36aAHdC51FB-" version="22.1.5" type="device">
  <diagram name="Page-1" id="xE1UIcaINzewr2aYMyUs">
    <mxGraphModel dx="1306" dy="682" grid="1" gridSize="10" guides="1" tooltips="1" connect="1" arrows="1" fold="1" page="1" pageScale="1" pageWidth="850" pageHeight="1100" math="0" shadow="0">
      <root>
        <mxCell id="0" />
        <mxCell id="1" parent="0" />
        <mxCell id="HmEvOAnSjj5FnCMNo_Ya-1" value="Ops/client" style="rounded=0;whiteSpace=wrap;html=1;" vertex="1" parent="1">
          <mxGeometry x="40" y="90" width="120" height="60" as="geometry" />
        </mxCell>
        <mxCell id="HmEvOAnSjj5FnCMNo_Ya-2" value="LB" style="rhombus;whiteSpace=wrap;html=1;" vertex="1" parent="1">
          <mxGeometry x="250" y="70" width="80" height="80" as="geometry" />
        </mxCell>
        <mxCell id="HmEvOAnSjj5FnCMNo_Ya-3" value="valiadtion service" style="rounded=0;whiteSpace=wrap;html=1;" vertex="1" parent="1">
          <mxGeometry x="410" y="80" width="120" height="60" as="geometry" />
        </mxCell>
        <mxCell id="HmEvOAnSjj5FnCMNo_Ya-4" value="" style="endArrow=classic;html=1;rounded=0;exitX=1;exitY=0.5;exitDx=0;exitDy=0;" edge="1" parent="1" source="HmEvOAnSjj5FnCMNo_Ya-1">
          <mxGeometry width="50" height="50" relative="1" as="geometry">
            <mxPoint x="200" y="160" as="sourcePoint" />
            <mxPoint x="250" y="110" as="targetPoint" />
          </mxGeometry>
        </mxCell>
        <mxCell id="HmEvOAnSjj5FnCMNo_Ya-5" value="" style="endArrow=classic;html=1;rounded=0;exitX=1;exitY=0.5;exitDx=0;exitDy=0;" edge="1" parent="1" source="HmEvOAnSjj5FnCMNo_Ya-2">
          <mxGeometry width="50" height="50" relative="1" as="geometry">
            <mxPoint x="360" y="160" as="sourcePoint" />
            <mxPoint x="410" y="110" as="targetPoint" />
          </mxGeometry>
        </mxCell>
        <mxCell id="HmEvOAnSjj5FnCMNo_Ya-6" value="valiadation/divide video into chunks" style="text;html=1;align=center;verticalAlign=middle;resizable=0;points=[];autosize=1;strokeColor=none;fillColor=none;" vertex="1" parent="1">
          <mxGeometry x="355" y="140" width="210" height="30" as="geometry" />
        </mxCell>
        <mxCell id="HmEvOAnSjj5FnCMNo_Ya-7" value="" style="shape=flexArrow;endArrow=classic;html=1;rounded=0;exitX=1;exitY=0.5;exitDx=0;exitDy=0;" edge="1" parent="1" source="HmEvOAnSjj5FnCMNo_Ya-3">
          <mxGeometry width="50" height="50" relative="1" as="geometry">
            <mxPoint x="590" y="130" as="sourcePoint" />
            <mxPoint x="680" y="120" as="targetPoint" />
          </mxGeometry>
        </mxCell>
        <mxCell id="HmEvOAnSjj5FnCMNo_Ya-8" value="Queue" style="text;html=1;align=center;verticalAlign=middle;resizable=0;points=[];autosize=1;strokeColor=none;fillColor=none;" vertex="1" parent="1">
          <mxGeometry x="550" y="80" width="60" height="30" as="geometry" />
        </mxCell>
        <mxCell id="HmEvOAnSjj5FnCMNo_Ya-9" value="Upload service" style="rounded=0;whiteSpace=wrap;html=1;" vertex="1" parent="1">
          <mxGeometry x="680" y="80" width="120" height="60" as="geometry" />
        </mxCell>
        <mxCell id="HmEvOAnSjj5FnCMNo_Ya-10" value="Stroage/ video Meta" style="rounded=0;whiteSpace=wrap;html=1;" vertex="1" parent="1">
          <mxGeometry x="640" y="270" width="120" height="60" as="geometry" />
        </mxCell>
        <mxCell id="HmEvOAnSjj5FnCMNo_Ya-11" value="to encode video into different format" style="text;html=1;align=center;verticalAlign=middle;resizable=0;points=[];autosize=1;strokeColor=none;fillColor=none;" vertex="1" parent="1">
          <mxGeometry x="650" y="140" width="210" height="30" as="geometry" />
        </mxCell>
        <mxCell id="HmEvOAnSjj5FnCMNo_Ya-12" value="S3" style="rounded=0;whiteSpace=wrap;html=1;" vertex="1" parent="1">
          <mxGeometry x="810" y="270" width="120" height="60" as="geometry" />
        </mxCell>
        <mxCell id="HmEvOAnSjj5FnCMNo_Ya-13" value="" style="endArrow=classic;html=1;rounded=0;" edge="1" parent="1" source="HmEvOAnSjj5FnCMNo_Ya-11">
          <mxGeometry width="50" height="50" relative="1" as="geometry">
            <mxPoint x="760" y="340" as="sourcePoint" />
            <mxPoint x="810" y="290" as="targetPoint" />
          </mxGeometry>
        </mxCell>
        <mxCell id="HmEvOAnSjj5FnCMNo_Ya-14" value="" style="endArrow=classic;html=1;rounded=0;entryX=0.75;entryY=0;entryDx=0;entryDy=0;" edge="1" parent="1" source="HmEvOAnSjj5FnCMNo_Ya-11" target="HmEvOAnSjj5FnCMNo_Ya-10">
          <mxGeometry width="50" height="50" relative="1" as="geometry">
            <mxPoint x="760" y="230" as="sourcePoint" />
            <mxPoint x="810" y="180" as="targetPoint" />
          </mxGeometry>
        </mxCell>
        <mxCell id="HmEvOAnSjj5FnCMNo_Ya-15" value="Employ service" style="rounded=0;whiteSpace=wrap;html=1;" vertex="1" parent="1">
          <mxGeometry x="425" y="210" width="120" height="60" as="geometry" />
        </mxCell>
        <mxCell id="HmEvOAnSjj5FnCMNo_Ya-16" value="" style="endArrow=classic;html=1;rounded=0;exitX=0.471;exitY=0;exitDx=0;exitDy=0;exitPerimeter=0;" edge="1" parent="1" source="HmEvOAnSjj5FnCMNo_Ya-6">
          <mxGeometry width="50" height="50" relative="1" as="geometry">
            <mxPoint x="430" y="260" as="sourcePoint" />
            <mxPoint x="480" y="210" as="targetPoint" />
          </mxGeometry>
        </mxCell>
        <mxCell id="HmEvOAnSjj5FnCMNo_Ya-17" value="100 MB -&amp;gt; 1 MB" style="text;html=1;align=center;verticalAlign=middle;resizable=0;points=[];autosize=1;strokeColor=none;fillColor=none;" vertex="1" parent="1">
          <mxGeometry x="385" y="18" width="110" height="30" as="geometry" />
        </mxCell>
        <mxCell id="HmEvOAnSjj5FnCMNo_Ya-20" value="byte" style="text;html=1;align=center;verticalAlign=middle;resizable=0;points=[];autosize=1;strokeColor=none;fillColor=none;" vertex="1" parent="1">
          <mxGeometry x="475" y="48" width="50" height="30" as="geometry" />
        </mxCell>
        <mxCell id="HmEvOAnSjj5FnCMNo_Ya-21" value="" style="endArrow=classic;html=1;rounded=0;exitX=0.833;exitY=0;exitDx=0;exitDy=0;exitPerimeter=0;" edge="1" parent="1" source="HmEvOAnSjj5FnCMNo_Ya-6">
          <mxGeometry width="50" height="50" relative="1" as="geometry">
            <mxPoint x="600" y="310" as="sourcePoint" />
            <mxPoint x="650" y="260" as="targetPoint" />
          </mxGeometry>
        </mxCell>
        <mxCell id="HmEvOAnSjj5FnCMNo_Ya-22" value="Mongo/COLUMN DB" style="text;html=1;align=center;verticalAlign=middle;resizable=0;points=[];autosize=1;strokeColor=none;fillColor=none;" vertex="1" parent="1">
          <mxGeometry x="610" y="338" width="140" height="30" as="geometry" />
        </mxCell>
        <mxCell id="HmEvOAnSjj5FnCMNo_Ya-23" value="Elastic serch&amp;nbsp;" style="rounded=0;whiteSpace=wrap;html=1;" vertex="1" parent="1">
          <mxGeometry x="610" y="410" width="120" height="60" as="geometry" />
        </mxCell>
        <mxCell id="HmEvOAnSjj5FnCMNo_Ya-25" value="1" style="text;html=1;align=center;verticalAlign=middle;resizable=0;points=[];autosize=1;strokeColor=none;fillColor=none;" vertex="1" parent="1">
          <mxGeometry x="775" y="208" width="30" height="30" as="geometry" />
        </mxCell>
        <mxCell id="HmEvOAnSjj5FnCMNo_Ya-26" value="1" style="text;html=1;align=center;verticalAlign=middle;resizable=0;points=[];autosize=1;strokeColor=none;fillColor=none;" vertex="1" parent="1">
          <mxGeometry x="345" y="88" width="30" height="30" as="geometry" />
        </mxCell>
        <mxCell id="HmEvOAnSjj5FnCMNo_Ya-27" value="2" style="text;html=1;align=center;verticalAlign=middle;resizable=0;points=[];autosize=1;strokeColor=none;fillColor=none;" vertex="1" parent="1">
          <mxGeometry x="465" y="168" width="30" height="30" as="geometry" />
        </mxCell>
        <mxCell id="HmEvOAnSjj5FnCMNo_Ya-29" value="3" style="text;html=1;align=center;verticalAlign=middle;resizable=0;points=[];autosize=1;strokeColor=none;fillColor=none;" vertex="1" parent="1">
          <mxGeometry x="605" y="58" width="30" height="30" as="geometry" />
        </mxCell>
        <mxCell id="HmEvOAnSjj5FnCMNo_Ya-30" value="" style="endArrow=classic;html=1;rounded=0;exitX=0.929;exitY=0;exitDx=0;exitDy=0;exitPerimeter=0;" edge="1" parent="1" source="HmEvOAnSjj5FnCMNo_Ya-6">
          <mxGeometry width="50" height="50" relative="1" as="geometry">
            <mxPoint x="770" y="320" as="sourcePoint" />
            <mxPoint x="820" y="270" as="targetPoint" />
          </mxGeometry>
        </mxCell>
        <mxCell id="HmEvOAnSjj5FnCMNo_Ya-33" value="" style="endArrow=classic;html=1;rounded=0;" edge="1" parent="1">
          <mxGeometry width="50" height="50" relative="1" as="geometry">
            <mxPoint x="530" y="150" as="sourcePoint" />
            <mxPoint x="610" y="430" as="targetPoint" />
          </mxGeometry>
        </mxCell>
        <mxCell id="HmEvOAnSjj5FnCMNo_Ya-34" value="" style="endArrow=classic;html=1;rounded=0;" edge="1" parent="1" source="HmEvOAnSjj5FnCMNo_Ya-11" target="HmEvOAnSjj5FnCMNo_Ya-23">
          <mxGeometry width="50" height="50" relative="1" as="geometry">
            <mxPoint x="840" y="480" as="sourcePoint" />
            <mxPoint x="890" y="430" as="targetPoint" />
          </mxGeometry>
        </mxCell>
        <mxCell id="HmEvOAnSjj5FnCMNo_Ya-43" value="Text" style="edgeLabel;html=1;align=center;verticalAlign=middle;resizable=0;points=[];" vertex="1" connectable="0" parent="HmEvOAnSjj5FnCMNo_Ya-34">
          <mxGeometry x="0.1639" y="1" relative="1" as="geometry">
            <mxPoint as="offset" />
          </mxGeometry>
        </mxCell>
        <mxCell id="HmEvOAnSjj5FnCMNo_Ya-35" value="Txn.start()&lt;br&gt;&lt;br&gt;&lt;br&gt;&lt;br&gt;catch{&lt;br&gt;tx.rollback()&lt;br&gt;}&lt;br&gt;&lt;br&gt;" style="text;html=1;align=center;verticalAlign=middle;resizable=0;points=[];autosize=1;strokeColor=none;fillColor=none;" vertex="1" parent="1">
          <mxGeometry x="55" y="268" width="90" height="130" as="geometry" />
        </mxCell>
        <mxCell id="HmEvOAnSjj5FnCMNo_Ya-36" value="CDN" style="rounded=0;whiteSpace=wrap;html=1;" vertex="1" parent="1">
          <mxGeometry x="160" y="350" width="120" height="60" as="geometry" />
        </mxCell>
        <mxCell id="HmEvOAnSjj5FnCMNo_Ya-37" value="stduent/client" style="rounded=0;whiteSpace=wrap;html=1;" vertex="1" parent="1">
          <mxGeometry x="55" y="530" width="120" height="60" as="geometry" />
        </mxCell>
        <mxCell id="HmEvOAnSjj5FnCMNo_Ya-38" value="LB" style="rhombus;whiteSpace=wrap;html=1;" vertex="1" parent="1">
          <mxGeometry x="280" y="520" width="80" height="80" as="geometry" />
        </mxCell>
        <mxCell id="HmEvOAnSjj5FnCMNo_Ya-39" value="" style="endArrow=classic;html=1;rounded=0;exitX=1;exitY=0.5;exitDx=0;exitDy=0;" edge="1" parent="1" source="HmEvOAnSjj5FnCMNo_Ya-37">
          <mxGeometry width="50" height="50" relative="1" as="geometry">
            <mxPoint x="230" y="610" as="sourcePoint" />
            <mxPoint x="280" y="560" as="targetPoint" />
          </mxGeometry>
        </mxCell>
        <mxCell id="HmEvOAnSjj5FnCMNo_Ya-40" value="" style="endArrow=classic;html=1;rounded=0;exitX=1;exitY=0.5;exitDx=0;exitDy=0;" edge="1" parent="1" source="HmEvOAnSjj5FnCMNo_Ya-38">
          <mxGeometry width="50" height="50" relative="1" as="geometry">
            <mxPoint x="380" y="580" as="sourcePoint" />
            <mxPoint x="490" y="570" as="targetPoint" />
          </mxGeometry>
        </mxCell>
        <mxCell id="HmEvOAnSjj5FnCMNo_Ya-41" value="" style="endArrow=classic;html=1;rounded=0;exitX=0.875;exitY=-0.083;exitDx=0;exitDy=0;exitPerimeter=0;" edge="1" parent="1" source="HmEvOAnSjj5FnCMNo_Ya-37">
          <mxGeometry width="50" height="50" relative="1" as="geometry">
            <mxPoint x="170" y="460" as="sourcePoint" />
            <mxPoint x="220" y="410" as="targetPoint" />
          </mxGeometry>
        </mxCell>
        <mxCell id="HmEvOAnSjj5FnCMNo_Ya-42" value="Aggreator service/ Middleware service" style="rounded=0;whiteSpace=wrap;html=1;" vertex="1" parent="1">
          <mxGeometry x="490" y="540" width="120" height="60" as="geometry" />
        </mxCell>
        <mxCell id="HmEvOAnSjj5FnCMNo_Ya-44" value="" style="endArrow=classic;html=1;rounded=0;" edge="1" parent="1" source="HmEvOAnSjj5FnCMNo_Ya-42">
          <mxGeometry width="50" height="50" relative="1" as="geometry">
            <mxPoint x="620" y="530" as="sourcePoint" />
            <mxPoint x="670" y="480" as="targetPoint" />
          </mxGeometry>
        </mxCell>
        <mxCell id="HmEvOAnSjj5FnCMNo_Ya-45" value="" style="endArrow=classic;html=1;rounded=0;exitX=0.367;exitY=-0.05;exitDx=0;exitDy=0;exitPerimeter=0;" edge="1" parent="1" source="HmEvOAnSjj5FnCMNo_Ya-42">
          <mxGeometry width="50" height="50" relative="1" as="geometry">
            <mxPoint x="600" y="380" as="sourcePoint" />
            <mxPoint x="650" y="330" as="targetPoint" />
          </mxGeometry>
        </mxCell>
        <mxCell id="HmEvOAnSjj5FnCMNo_Ya-46" value="" style="endArrow=classic;html=1;rounded=0;exitX=1;exitY=0.75;exitDx=0;exitDy=0;" edge="1" parent="1" source="HmEvOAnSjj5FnCMNo_Ya-42">
          <mxGeometry width="50" height="50" relative="1" as="geometry">
            <mxPoint x="810" y="390" as="sourcePoint" />
            <mxPoint x="860" y="340" as="targetPoint" />
          </mxGeometry>
        </mxCell>
      </root>
    </mxGraphModel>
  </diagram>
</mxfile>
